<svg width="691" height="133" viewBox="0 0 691 133" fill="none" xmlns="http://www.w3.org/2000/svg">
<path d="M164.97 60.496C166.698 58.064 169.066 56.048 172.074 54.448C175.146 52.784 178.634 51.952 182.538 51.952C187.082 51.952 191.178 53.072 194.826 55.312C198.538 57.552 201.45 60.752 203.562 64.912C205.738 69.008 206.826 73.776 206.826 79.216C206.826 84.656 205.738 89.488 203.562 93.712C201.45 97.872 198.538 101.104 194.826 103.408C191.178 105.712 187.082 106.864 182.538 106.864C178.634 106.864 175.178 106.064 172.17 104.464C169.226 102.864 166.826 100.848 164.97 98.416V131.344H151.53V52.816H164.97V60.496ZM193.098 79.216C193.098 76.016 192.426 73.264 191.082 70.96C189.802 68.592 188.074 66.8 185.898 65.584C183.786 64.368 181.482 63.76 178.986 63.76C176.554 63.76 174.25 64.4 172.074 65.68C169.962 66.896 168.234 68.688 166.89 71.056C165.61 73.424 164.97 76.208 164.97 79.408C164.97 82.608 165.61 85.392 166.89 87.76C168.234 90.128 169.962 91.952 172.074 93.232C174.25 94.448 176.554 95.056 178.986 95.056C181.482 95.056 183.786 94.416 185.898 93.136C188.074 91.856 189.802 90.032 191.082 87.664C192.426 85.296 193.098 82.48 193.098 79.216ZM230.033 61.072C231.761 58.256 234.001 56.048 236.753 54.448C239.569 52.848 242.769 52.048 246.353 52.048V66.16H242.801C238.577 66.16 235.377 67.152 233.201 69.136C231.089 71.12 230.033 74.576 230.033 79.504V106H216.593V52.816H230.033V61.072ZM262.221 46.48C259.853 46.48 257.869 45.744 256.269 44.272C254.733 42.736 253.965 40.848 253.965 38.608C253.965 36.368 254.733 34.512 256.269 33.04C257.869 31.504 259.853 30.736 262.221 30.736C264.589 30.736 266.541 31.504 268.077 33.04C269.677 34.512 270.477 36.368 270.477 38.608C270.477 40.848 269.677 42.736 268.077 44.272C266.541 45.744 264.589 46.48 262.221 46.48ZM268.845 52.816V106H255.405V52.816H268.845ZM278.668 79.408C278.668 73.904 279.788 69.104 282.028 65.008C284.268 60.848 287.372 57.648 291.34 55.408C295.308 53.104 299.852 51.952 304.972 51.952C311.564 51.952 317.004 53.616 321.292 56.944C325.644 60.208 328.556 64.816 330.028 70.768H315.532C314.764 68.464 313.452 66.672 311.596 65.392C309.804 64.048 307.564 63.376 304.876 63.376C301.036 63.376 297.996 64.784 295.756 67.6C293.516 70.352 292.396 74.288 292.396 79.408C292.396 84.464 293.516 88.4 295.756 91.216C297.996 93.968 301.036 95.344 304.876 95.344C310.316 95.344 313.868 92.912 315.532 88.048H330.028C328.556 93.808 325.644 98.384 321.292 101.776C316.94 105.168 311.5 106.864 304.972 106.864C299.852 106.864 295.308 105.744 291.34 103.504C287.372 101.2 284.268 98 282.028 93.904C279.788 89.744 278.668 84.912 278.668 79.408ZM389.314 78.256C389.314 80.176 389.186 81.904 388.93 83.44H350.05C350.37 87.28 351.714 90.288 354.082 92.464C356.45 94.64 359.362 95.728 362.818 95.728C367.81 95.728 371.362 93.584 373.474 89.296H387.97C386.434 94.416 383.49 98.64 379.138 101.968C374.786 105.232 369.442 106.864 363.106 106.864C357.986 106.864 353.378 105.744 349.282 103.504C345.25 101.2 342.082 97.968 339.778 93.808C337.538 89.648 336.418 84.848 336.418 79.408C336.418 73.904 337.538 69.072 339.778 64.912C342.018 60.752 345.154 57.552 349.186 55.312C353.218 53.072 357.858 51.952 363.106 51.952C368.162 51.952 372.674 53.04 376.642 55.216C380.674 57.392 383.778 60.496 385.954 64.528C388.194 68.496 389.314 73.072 389.314 78.256ZM375.394 74.416C375.33 70.96 374.082 68.208 371.65 66.16C369.218 64.048 366.242 62.992 362.722 62.992C359.394 62.992 356.578 64.016 354.274 66.064C352.034 68.048 350.658 70.832 350.146 74.416H375.394ZM472.852 52.816L457.3 106H442.804L433.108 68.848L423.412 106H408.82L393.172 52.816H406.804L416.212 93.328L426.388 52.816H440.596L450.58 93.232L459.988 52.816H472.852ZM476.668 79.216C476.668 73.84 477.724 69.072 479.836 64.912C482.012 60.752 484.924 57.552 488.572 55.312C492.284 53.072 496.412 51.952 500.956 51.952C504.924 51.952 508.38 52.752 511.324 54.352C514.332 55.952 516.732 57.968 518.524 60.4V52.816H532.06V106H518.524V98.224C516.796 100.72 514.396 102.8 511.324 104.464C508.316 106.064 504.828 106.864 500.86 106.864C496.38 106.864 492.284 105.712 488.572 103.408C484.924 101.104 482.012 97.872 479.836 93.712C477.724 89.488 476.668 84.656 476.668 79.216ZM518.524 79.408C518.524 76.144 517.884 73.36 516.604 71.056C515.324 68.688 513.596 66.896 511.42 65.68C509.244 64.4 506.908 63.76 504.412 63.76C501.916 63.76 499.612 64.368 497.5 65.584C495.388 66.8 493.66 68.592 492.316 70.96C491.036 73.264 490.396 76.016 490.396 79.216C490.396 82.416 491.036 85.232 492.316 87.664C493.66 90.032 495.388 91.856 497.5 93.136C499.676 94.416 501.98 95.056 504.412 95.056C506.908 95.056 509.244 94.448 511.42 93.232C513.596 91.952 515.324 90.16 516.604 87.856C517.884 85.488 518.524 82.672 518.524 79.408ZM560.835 63.856V89.584C560.835 91.376 561.251 92.688 562.083 93.52C562.979 94.288 564.451 94.672 566.499 94.672H572.739V106H564.291C552.963 106 547.299 100.496 547.299 89.488V63.856H540.963V52.816H547.299V39.664H560.835V52.816H572.739V63.856H560.835ZM578.949 79.408C578.949 73.904 580.069 69.104 582.309 65.008C584.549 60.848 587.653 57.648 591.621 55.408C595.589 53.104 600.133 51.952 605.253 51.952C611.845 51.952 617.285 53.616 621.573 56.944C625.925 60.208 628.837 64.816 630.309 70.768H615.813C615.045 68.464 613.733 66.672 611.877 65.392C610.085 64.048 607.845 63.376 605.157 63.376C601.317 63.376 598.277 64.784 596.037 67.6C593.797 70.352 592.677 74.288 592.677 79.408C592.677 84.464 593.797 88.4 596.037 91.216C598.277 93.968 601.317 95.344 605.157 95.344C610.597 95.344 614.149 92.912 615.813 88.048H630.309C628.837 93.808 625.925 98.384 621.573 101.776C617.221 105.168 611.781 106.864 605.253 106.864C600.133 106.864 595.589 105.744 591.621 103.504C587.653 101.2 584.549 98 582.309 93.904C580.069 89.744 578.949 84.912 578.949 79.408ZM670.107 52.048C674.139 52.048 677.723 52.944 680.859 54.736C683.995 56.464 686.427 59.056 688.155 62.512C689.947 65.904 690.843 70 690.843 74.8V106H677.403V76.624C677.403 72.4 676.347 69.168 674.235 66.928C672.123 64.624 669.243 63.472 665.595 63.472C661.883 63.472 658.939 64.624 656.763 66.928C654.651 69.168 653.595 72.4 653.595 76.624V106H640.155V34.96H653.595V59.44C655.323 57.136 657.627 55.344 660.507 54.064C663.387 52.72 666.587 52.048 670.107 52.048Z" fill="url(#paint0_linear_108_158)"/>
<path d="M1 12V132H117.146" stroke="#C1C0B0" stroke-width="2" stroke-linecap="round" stroke-linejoin="round"/>
<path d="M97.2356 104V52" stroke="#1B52A5" stroke-width="2" stroke-linecap="round" stroke-linejoin="round"/>
<path d="M64.051 104V24" stroke="#EEE8AA" stroke-width="2" stroke-linecap="round" stroke-linejoin="round"/>
<path d="M34.1848 104V84" stroke="#578A6C" stroke-width="2" stroke-linecap="round" stroke-linejoin="round"/>
<defs>
<linearGradient id="paint0_linear_108_158" x1="134" y1="72.5359" x2="696.954" y2="80.5826" gradientUnits="userSpaceOnUse">
<stop stop-color="white"/>
<stop offset="0.492615" stop-color="white"/>
<stop offset="1" stop-color="white"/>
</linearGradient>
</defs>
</svg>
